<mxfile host="Electron" agent="Mozilla/5.0 (Windows NT 10.0; Win64; x64) AppleWebKit/537.36 (KHTML, like Gecko) draw.io/26.1.1 Chrome/132.0.6834.210 Electron/34.3.3 Safari/537.36" version="26.1.1">
  <diagram name="Page-1" id="cCxBk_eimAqf97GH_cLi">
    <mxGraphModel dx="780" dy="496" grid="1" gridSize="10" guides="1" tooltips="1" connect="1" arrows="1" fold="1" page="1" pageScale="1" pageWidth="850" pageHeight="1100" math="0" shadow="0">
      <root>
        <mxCell id="0" />
        <mxCell id="1" parent="0" />
        <mxCell id="yMlpHwS7ok8onnk14Wce-3" value="&lt;span style=&quot;color: rgba(0, 0, 0, 0); font-family: monospace; font-size: 0px; text-align: start; text-wrap-mode: nowrap;&quot;&gt;%3CmxGraphModel%3E%3Croot%3E%3CmxCell%20id%3D%220%22%2F%3E%3CmxCell%20id%3D%221%22%20parent%3D%220%22%2F%3E%3CmxCell%20id%3D%222%22%20value%3D%22Actor%22%20style%3D%22shape%3DumlActor%3BverticalLabelPosition%3Dbottom%3BverticalAlign%3Dtop%3Bhtml%3D1%3BoutlineConnect%3D0%3B%22%20vertex%3D%221%22%20parent%3D%221%22%3E%3CmxGeometry%20x%3D%22690%22%20y%3D%22250%22%20width%3D%2230%22%20height%3D%2260%22%20as%3D%22geometry%22%2F%3E%3C%2FmxCell%3E%3CmxCell%20id%3D%223%22%20value%3D%22Actor%22%20style%3D%22shape%3DumlActor%3BverticalLabelPosition%3Dbottom%3BverticalAlign%3Dtop%3Bhtml%3D1%3BoutlineConnect%3D0%3B%22%20vertex%3D%221%22%20parent%3D%221%22%3E%3CmxGeometry%20x%3D%22160%22%20y%3D%22250%22%20width%3D%2230%22%20height%3D%2260%22%20as%3D%22geometry%22%2F%3E%3C%2FmxCell%3E%3C%2Froot%3E%3C%2FmxGraphModel%3E&lt;/span&gt;" style="rounded=0;whiteSpace=wrap;html=1;" parent="1" vertex="1">
          <mxGeometry x="50" y="220" width="720" height="740" as="geometry" />
        </mxCell>
        <mxCell id="yMlpHwS7ok8onnk14Wce-4" value="Admin" style="shape=umlActor;verticalLabelPosition=bottom;verticalAlign=top;html=1;outlineConnect=0;" parent="1" vertex="1">
          <mxGeometry x="710" y="530" width="30" height="60" as="geometry" />
        </mxCell>
        <mxCell id="yMlpHwS7ok8onnk14Wce-18" value="" style="rounded=0;whiteSpace=wrap;html=1;" parent="1" vertex="1">
          <mxGeometry x="230" y="290" width="380" height="520" as="geometry" />
        </mxCell>
        <mxCell id="yMlpHwS7ok8onnk14Wce-5" value="Staff" style="shape=umlActor;verticalLabelPosition=bottom;verticalAlign=top;html=1;outlineConnect=0;" parent="1" vertex="1">
          <mxGeometry x="100" y="530" width="30" height="60" as="geometry" />
        </mxCell>
        <mxCell id="yMlpHwS7ok8onnk14Wce-7" value="Billing" style="ellipse;whiteSpace=wrap;html=1;" parent="1" vertex="1">
          <mxGeometry x="350" y="430" width="120" height="30" as="geometry" />
        </mxCell>
        <mxCell id="yMlpHwS7ok8onnk14Wce-8" value="Order" style="ellipse;whiteSpace=wrap;html=1;" parent="1" vertex="1">
          <mxGeometry x="355" y="370" width="120" height="30" as="geometry" />
        </mxCell>
        <mxCell id="yMlpHwS7ok8onnk14Wce-9" value="Attendance" style="ellipse;whiteSpace=wrap;html=1;" parent="1" vertex="1">
          <mxGeometry x="355" y="730" width="120" height="30" as="geometry" />
        </mxCell>
        <mxCell id="yMlpHwS7ok8onnk14Wce-10" value="Add item" style="ellipse;whiteSpace=wrap;html=1;" parent="1" vertex="1">
          <mxGeometry x="350" y="500" width="120" height="30" as="geometry" />
        </mxCell>
        <mxCell id="yMlpHwS7ok8onnk14Wce-11" value="Add admin" style="ellipse;whiteSpace=wrap;html=1;" parent="1" vertex="1">
          <mxGeometry x="350" y="560" width="120" height="30" as="geometry" />
        </mxCell>
        <mxCell id="yMlpHwS7ok8onnk14Wce-12" value="Sales Report" style="ellipse;whiteSpace=wrap;html=1;" parent="1" vertex="1">
          <mxGeometry x="355" y="670" width="120" height="30" as="geometry" />
        </mxCell>
        <mxCell id="yMlpHwS7ok8onnk14Wce-13" value="Update Item" style="ellipse;whiteSpace=wrap;html=1;" parent="1" vertex="1">
          <mxGeometry x="355" y="620" width="120" height="30" as="geometry" />
        </mxCell>
        <mxCell id="yMlpHwS7ok8onnk14Wce-19" value="" style="endArrow=none;html=1;rounded=0;entryX=0.072;entryY=0.8;entryDx=0;entryDy=0;entryPerimeter=0;" parent="1" target="yMlpHwS7ok8onnk14Wce-8" edge="1">
          <mxGeometry width="50" height="50" relative="1" as="geometry">
            <mxPoint x="160" y="550" as="sourcePoint" />
            <mxPoint x="440" y="510" as="targetPoint" />
            <Array as="points">
              <mxPoint x="160" y="550" />
            </Array>
          </mxGeometry>
        </mxCell>
        <mxCell id="yMlpHwS7ok8onnk14Wce-21" value="" style="endArrow=none;html=1;rounded=0;entryX=0;entryY=0.5;entryDx=0;entryDy=0;" parent="1" target="yMlpHwS7ok8onnk14Wce-7" edge="1">
          <mxGeometry width="50" height="50" relative="1" as="geometry">
            <mxPoint x="160" y="550" as="sourcePoint" />
            <mxPoint x="440" y="510" as="targetPoint" />
          </mxGeometry>
        </mxCell>
        <mxCell id="yMlpHwS7ok8onnk14Wce-25" value="" style="endArrow=none;html=1;rounded=0;entryX=1;entryY=0.5;entryDx=0;entryDy=0;" parent="1" target="yMlpHwS7ok8onnk14Wce-8" edge="1">
          <mxGeometry width="50" height="50" relative="1" as="geometry">
            <mxPoint x="670" y="560" as="sourcePoint" />
            <mxPoint x="480" y="405" as="targetPoint" />
          </mxGeometry>
        </mxCell>
        <mxCell id="yMlpHwS7ok8onnk14Wce-26" value="" style="endArrow=none;html=1;rounded=0;entryX=1;entryY=0.5;entryDx=0;entryDy=0;" parent="1" target="yMlpHwS7ok8onnk14Wce-7" edge="1">
          <mxGeometry width="50" height="50" relative="1" as="geometry">
            <mxPoint x="670" y="560" as="sourcePoint" />
            <mxPoint x="490" y="415" as="targetPoint" />
          </mxGeometry>
        </mxCell>
        <mxCell id="yMlpHwS7ok8onnk14Wce-27" value="" style="endArrow=none;html=1;rounded=0;entryX=1;entryY=0.5;entryDx=0;entryDy=0;" parent="1" target="yMlpHwS7ok8onnk14Wce-10" edge="1">
          <mxGeometry width="50" height="50" relative="1" as="geometry">
            <mxPoint x="670" y="560" as="sourcePoint" />
            <mxPoint x="500" y="425" as="targetPoint" />
          </mxGeometry>
        </mxCell>
        <mxCell id="yMlpHwS7ok8onnk14Wce-28" value="" style="endArrow=none;html=1;rounded=0;entryX=1;entryY=0.5;entryDx=0;entryDy=0;" parent="1" target="yMlpHwS7ok8onnk14Wce-12" edge="1">
          <mxGeometry width="50" height="50" relative="1" as="geometry">
            <mxPoint x="670" y="560" as="sourcePoint" />
            <mxPoint x="510" y="435" as="targetPoint" />
          </mxGeometry>
        </mxCell>
        <mxCell id="yMlpHwS7ok8onnk14Wce-29" value="" style="endArrow=none;html=1;rounded=0;entryX=1;entryY=0.5;entryDx=0;entryDy=0;" parent="1" target="yMlpHwS7ok8onnk14Wce-11" edge="1">
          <mxGeometry width="50" height="50" relative="1" as="geometry">
            <mxPoint x="670" y="560" as="sourcePoint" />
            <mxPoint x="520" y="445" as="targetPoint" />
          </mxGeometry>
        </mxCell>
        <mxCell id="yMlpHwS7ok8onnk14Wce-30" value="" style="endArrow=none;html=1;rounded=0;entryX=1;entryY=0.5;entryDx=0;entryDy=0;" parent="1" target="yMlpHwS7ok8onnk14Wce-13" edge="1">
          <mxGeometry width="50" height="50" relative="1" as="geometry">
            <mxPoint x="670" y="560" as="sourcePoint" />
            <mxPoint x="530" y="455" as="targetPoint" />
          </mxGeometry>
        </mxCell>
        <mxCell id="yMlpHwS7ok8onnk14Wce-31" value="" style="endArrow=none;html=1;rounded=0;entryX=1;entryY=0.5;entryDx=0;entryDy=0;" parent="1" target="yMlpHwS7ok8onnk14Wce-9" edge="1">
          <mxGeometry width="50" height="50" relative="1" as="geometry">
            <mxPoint x="670" y="560" as="sourcePoint" />
            <mxPoint x="540" y="465" as="targetPoint" />
          </mxGeometry>
        </mxCell>
        <mxCell id="yMlpHwS7ok8onnk14Wce-34" value="NAADBRAMHA USECASE" style="rounded=0;whiteSpace=wrap;html=1;" parent="1" vertex="1">
          <mxGeometry x="330" y="830" width="190" height="40" as="geometry" />
        </mxCell>
        <mxCell id="yMlpHwS7ok8onnk14Wce-35" value="Add To Cart" style="ellipse;whiteSpace=wrap;html=1;" parent="1" vertex="1">
          <mxGeometry x="355" y="310" width="120" height="30" as="geometry" />
        </mxCell>
        <mxCell id="yMlpHwS7ok8onnk14Wce-36" value="" style="endArrow=none;html=1;rounded=0;entryX=0;entryY=0.5;entryDx=0;entryDy=0;" parent="1" target="yMlpHwS7ok8onnk14Wce-35" edge="1">
          <mxGeometry width="50" height="50" relative="1" as="geometry">
            <mxPoint x="160" y="550" as="sourcePoint" />
            <mxPoint x="375" y="355" as="targetPoint" />
            <Array as="points">
              <mxPoint x="160" y="550" />
            </Array>
          </mxGeometry>
        </mxCell>
        <mxCell id="yMlpHwS7ok8onnk14Wce-37" value="" style="endArrow=none;html=1;rounded=0;entryX=1;entryY=0.5;entryDx=0;entryDy=0;" parent="1" target="yMlpHwS7ok8onnk14Wce-35" edge="1">
          <mxGeometry width="50" height="50" relative="1" as="geometry">
            <mxPoint x="670" y="560" as="sourcePoint" />
            <mxPoint x="480" y="335" as="targetPoint" />
          </mxGeometry>
        </mxCell>
      </root>
    </mxGraphModel>
  </diagram>
</mxfile>
